<svg width="53" height="53" viewBox="0 0 53 53" fill="none" xmlns="http://www.w3.org/2000/svg">
<g clip-path="url(#clip0_4_17)">
<path opacity="0.3" d="M34.3334 19.875H16.6667V41.9583H34.3334V19.875ZM33.2954 35.5983L30.1817 38.7121L25.5 34.0304L20.8184 38.7121L17.7046 35.5983L22.3863 30.9167L17.6825 26.235L20.7963 23.1213L25.5 27.8029L30.1817 23.1213L33.2954 26.235L28.6138 30.9167L33.2954 35.5983Z" fill="#F82125"/>
<path d="M30.1817 23.1213L25.5 27.8029L20.7963 23.1213L17.6825 26.235L22.3863 30.9167L17.7046 35.5983L20.8184 38.7121L25.5 34.0304L30.1817 38.7121L33.2954 35.5983L28.6138 30.9167L33.2954 26.235L30.1817 23.1213ZM33.2292 8.83333L31.0209 6.625H19.9792L17.7709 8.83333H10.0417V13.25H40.9584V8.83333H33.2292ZM12.25 41.9583C12.25 44.3875 14.2375 46.375 16.6667 46.375H34.3334C36.7625 46.375 38.75 44.3875 38.75 41.9583V15.4583H12.25V41.9583ZM16.6667 19.875H34.3334V41.9583H16.6667V19.875Z" fill="#F82125"/>
</g>
<defs>
<clipPath id="clip0_4_17">
<rect width="53" height="53" fill="white"/>
</clipPath>
</defs>
</svg>
