<svg width="50" height="50" viewBox="0 0 50 50" fill="none" xmlns="http://www.w3.org/2000/svg">
<path opacity="0.3" d="M27.0833 8.33334H12.5V41.6667H37.5V18.75H27.0833V8.33334ZM33.3333 37.5H16.6667V33.3333H33.3333V37.5ZM33.3333 25V29.1667H16.6667V25H33.3333Z" fill="#0696DE"/>
<path d="M16.6666 33.3333H33.3333V37.5H16.6666V33.3333ZM16.6666 25H33.3333V29.1667H16.6666V25ZM29.1666 4.16666H12.5C10.2083 4.16666 8.33331 6.04166 8.33331 8.33332V41.6667C8.33331 43.9583 10.1875 45.8333 12.4791 45.8333H37.5C39.7916 45.8333 41.6666 43.9583 41.6666 41.6667V16.6667L29.1666 4.16666ZM37.5 41.6667H12.5V8.33332H27.0833V18.75H37.5V41.6667Z" fill="#0696DE"/>
</svg>
