<svg width="53" height="53" viewBox="0 0 53 53" fill="none" xmlns="http://www.w3.org/2000/svg">
<path d="M17.6667 44.1667V46.3767C18.2528 46.3767 18.8149 46.1438 19.2294 45.7294L17.6667 44.1667ZM8.83334 44.1667H6.62334C6.62334 45.3872 7.61279 46.3767 8.83334 46.3767V44.1667ZM8.83334 35.3333L7.27064 33.7706C6.85618 34.1851 6.62334 34.7472 6.62334 35.3333H8.83334ZM33.7718 10.3949L35.3345 11.9576L35.3345 11.9576L33.7718 10.3949ZM36.8949 10.3949L35.3322 11.9576L35.3322 11.9576L36.8949 10.3949ZM42.6052 16.1051L44.1679 14.5424L44.1679 14.5424L42.6052 16.1051ZM42.6051 19.2282L41.0424 17.6655L42.6051 19.2282ZM17.6667 41.9567H8.83334V46.3767H17.6667V41.9567ZM11.0433 44.1667V35.3333H6.62334V44.1667H11.0433ZM10.396 36.896L35.3345 11.9576L32.2091 8.83215L7.27064 33.7706L10.396 36.896ZM35.3322 11.9576L41.0424 17.6678L44.1679 14.5424L38.4576 8.83215L35.3322 11.9576ZM41.0424 17.6655L16.104 42.604L19.2294 45.7294L44.1679 20.7909L41.0424 17.6655ZM41.0424 17.6678C41.0444 17.6698 41.0445 17.6703 41.0439 17.6693C41.0433 17.6683 41.0427 17.6672 41.0422 17.6662C41.0415 17.6644 41.042 17.6646 41.042 17.6667C41.042 17.6687 41.0415 17.669 41.0422 17.6672C41.0427 17.6661 41.0433 17.665 41.0439 17.6641C41.0445 17.663 41.0444 17.6635 41.0424 17.6655L44.1679 20.7909C45.8933 19.0654 45.8933 16.2679 44.1679 14.5424L41.0424 17.6678ZM35.3345 11.9576C35.3365 11.9556 35.337 11.9555 35.3359 11.9561C35.335 11.9567 35.3339 11.9573 35.3328 11.9578C35.331 11.9585 35.3313 11.958 35.3333 11.958C35.3354 11.958 35.3356 11.9585 35.3338 11.9578C35.3328 11.9573 35.3317 11.9567 35.3307 11.9561C35.3297 11.9555 35.3302 11.9556 35.3322 11.9576L38.4576 8.83215C36.7321 7.10668 33.9346 7.10668 32.2091 8.83215L35.3345 11.9576Z" fill="#0696DE"/>
<path d="M26.5 17.6667L35.3333 26.5" stroke="#0696DE" stroke-width="4.42" stroke-linecap="round" stroke-linejoin="round"/>
</svg>
