<svg width="53" height="53" viewBox="0 0 53 53" fill="none" xmlns="http://www.w3.org/2000/svg">
<path d="M8.83333 44.1667H44.1667" stroke="#0696DE" stroke-width="4.41667" stroke-linecap="round" stroke-linejoin="round"/>
<path d="M17.6667 44.1667V46.375C18.2523 46.375 18.814 46.1423 19.2282 45.7282L17.6667 44.1667ZM8.83333 44.1667H6.62499C6.62499 45.3863 7.6137 46.375 8.83333 46.375V44.1667ZM8.83333 35.3333L7.2718 33.7718C6.85766 34.1859 6.62499 34.7476 6.62499 35.3333H8.83333ZM33.7718 10.3949L35.3333 11.9564L35.3333 11.9564L33.7718 10.3949ZM36.8949 10.3949L35.3333 11.9564L35.3333 11.9564L36.8949 10.3949ZM42.6051 16.1051L44.1667 14.5436L44.1667 14.5436L42.6051 16.1051ZM42.6051 19.2282L41.0436 17.6667L42.6051 19.2282ZM17.6667 41.9583H8.83333V46.375H17.6667V41.9583ZM11.0417 44.1667V35.3333H6.62499V44.1667H11.0417ZM10.3949 36.8949L35.3333 11.9564L32.2103 8.83333L7.2718 33.7718L10.3949 36.8949ZM35.3333 11.9564L41.0436 17.6667L44.1667 14.5436L38.4564 8.83333L35.3333 11.9564ZM41.0436 17.6667L16.1051 42.6051L19.2282 45.7282L44.1667 20.7897L41.0436 17.6667ZM41.0436 17.6667L41.0436 17.6667L44.1667 20.7897C45.8915 19.0649 45.8915 16.2684 44.1667 14.5436L41.0436 17.6667ZM35.3333 11.9564H35.3333L38.4564 8.83333C36.7316 7.10851 33.9351 7.10851 32.2103 8.83333L35.3333 11.9564Z" fill="#0696DE"/>
</svg>
