<svg width="53" height="53" viewBox="0 0 53 53" fill="none" xmlns="http://www.w3.org/2000/svg">
<path d="M29.8069 10.8436L31.94 11.4151L31.94 11.4151L29.8069 10.8436ZM21.8219 40.6441L23.955 41.2156L23.955 41.2156L21.8219 40.6441ZM6.89028 36.6431L9.02337 37.2147L9.02337 37.2147L6.89028 36.6431ZM14.8753 6.84268L17.0084 7.41424L17.0084 7.41424L14.8753 6.84268ZM16.3072 6.01599L15.7356 8.14907L15.7356 8.14907L16.3072 6.01599ZM28.9802 9.41172L29.5518 7.27863L29.5518 7.27863L28.9802 9.41172ZM27.6738 10.272L19.6888 40.0725L23.955 41.2156L31.94 11.4151L27.6738 10.272ZM9.02337 37.2147L17.0084 7.41424L12.7422 6.27112L4.7572 36.0716L9.02337 37.2147ZM15.7356 8.14907L28.4086 11.5448L29.5518 7.27863L16.8787 3.8829L15.7356 8.14907ZM17.0084 7.41424C16.8598 7.96863 16.29 8.29762 15.7356 8.14907L16.8787 3.8829C15.077 3.40012 13.225 4.46936 12.7422 6.27112L17.0084 7.41424ZM12.9272 43.9763C9.98201 43.1872 8.23421 40.1599 9.02337 37.2147L4.7572 36.0716C3.33671 41.3729 6.48275 46.822 11.7841 48.2425L12.9272 43.9763ZM19.6888 40.0725C18.8996 43.0177 15.8724 44.7655 12.9272 43.9763L11.7841 48.2425C17.0854 49.663 22.5345 46.5169 23.955 41.2156L19.6888 40.0725ZM31.94 11.4151C32.4228 9.61339 31.3535 7.76141 29.5518 7.27863L28.4086 11.5448C27.8543 11.3963 27.5253 10.8264 27.6738 10.272L31.94 11.4151Z" fill="#0696DE"/>
<path d="M45.2059 46.3748L45.2059 48.5831H45.2059V46.3748ZM14.3542 44.1664C13.1345 44.1664 12.1458 45.1551 12.1458 46.3748C12.1458 47.5944 13.1345 48.5831 14.3542 48.5831L14.3542 44.1664ZM48.5833 32.0855C48.5833 30.8659 47.5946 29.8772 46.375 29.8772C45.1554 29.8772 44.1667 30.8659 44.1667 32.0855H48.5833ZM45.2059 44.1664L14.3542 44.1664L14.3542 48.5831L45.2059 48.5831L45.2059 44.1664ZM44.1667 32.0855V45.2056H48.5833V32.0855H44.1667ZM45.2059 48.5831C47.0712 48.5831 48.5833 47.0709 48.5833 45.2056H44.1667C44.1667 44.6317 44.6319 44.1664 45.2059 44.1664V48.5831Z" fill="#0696DE"/>
<path d="M14.3542 38.8667H14.3586V38.8711H14.3542V38.8667Z" stroke="#0696DE" stroke-width="4.41667" stroke-linecap="round" stroke-linejoin="round"/>
<path d="M45.5836 32.6105L44.6503 30.6091L44.6503 30.6091L45.5836 32.6105ZM16.6892 43.6476C15.5838 44.163 15.1056 45.4769 15.621 46.5823C16.1365 47.6876 17.4504 48.1659 18.5557 47.6504L16.6892 43.6476ZM40.6043 19.166L38.6029 20.0993L38.6029 20.0993L40.6043 19.166ZM46.1491 31.0568L48.1505 30.1236L48.1505 30.1236L46.1491 31.0568ZM39.0506 18.6005L38.1173 16.5991L38.1173 16.5991L39.0506 18.6005ZM25.6329 22.4207C24.5275 22.9361 24.0493 24.25 24.5647 25.3554C25.0802 26.4608 26.3941 26.939 27.4994 26.4235L25.6329 22.4207ZM44.6503 30.6091L16.6892 43.6476L18.5557 47.6504L46.5169 34.6119L44.6503 30.6091ZM38.6029 20.0993L44.1477 31.9901L48.1505 30.1236L42.6057 18.2327L38.6029 20.0993ZM39.9839 20.6019C39.4637 20.8445 38.8454 20.6194 38.6029 20.0993L42.6057 18.2327C41.8174 16.5422 39.8079 15.8108 38.1173 16.5991L39.9839 20.6019ZM46.5169 34.6119C48.2074 33.8236 48.9388 31.8141 48.1505 30.1236L44.1477 31.9901C43.9051 31.47 44.1301 30.8516 44.6503 30.6091L46.5169 34.6119ZM27.4994 26.4235L39.9839 20.6019L38.1173 16.5991L25.6329 22.4207L27.4994 26.4235Z" fill="#0696DE"/>
</svg>
